<svg width="24" height="15" viewBox="0 0 24 15" fill="none" xmlns="http://www.w3.org/2000/svg">
<path d="M22.8 0.200195H1.2C0.537375 0.200195 0 0.73757 0 1.4002V13.4002C0 14.0628 0.537375 14.6002 1.2 14.6002H7.20825C8.15287 14.6002 9.00938 14.0463 9.39675 13.1849L10.437 10.8734C10.7329 10.2157 11.3381 9.8002 12 9.8002C12.6619 9.8002 13.2671 10.2157 13.563 10.8734L14.6033 13.1849C14.9906 14.0463 15.8475 14.6002 16.7917 14.6002H22.8C23.4626 14.6002 24 14.0628 24 13.4002V1.4002C24 0.73757 23.4626 0.200195 22.8 0.200195ZM6 9.2002C4.67438 9.2002 3.6 8.12582 3.6 6.8002C3.6 5.47457 4.67438 4.4002 6 4.4002C7.32563 4.4002 8.4 5.47457 8.4 6.8002C8.4 8.12582 7.32563 9.2002 6 9.2002ZM18 9.2002C16.6744 9.2002 15.6 8.12582 15.6 6.8002C15.6 5.47457 16.6744 4.4002 18 4.4002C19.3256 4.4002 20.4 5.47457 20.4 6.8002C20.4 8.12582 19.3256 9.2002 18 9.2002Z" fill="#BDBDBD"/>
</svg>
