<svg width="21" height="21" viewBox="0 0 21 21" fill="none" xmlns="http://www.w3.org/2000/svg">
<path d="M13.6129 10.5006L19.639 4.47447C20.4987 3.61484 20.4987 2.22114 19.639 1.36152C18.7794 0.501891 17.3858 0.501891 16.5261 1.36152L10.4999 7.38769L4.47373 1.36152C3.61411 0.501891 2.22041 0.501891 1.36078 1.36152C0.501158 2.22114 0.501158 3.61484 1.36078 4.47447L7.38696 10.5006L1.36078 16.5268C0.501158 17.3864 0.501158 18.7802 1.36078 19.6398C1.7906 20.0695 2.35392 20.2845 2.91724 20.2845C3.48056 20.2845 4.04392 20.0696 4.47369 19.6398L10.4999 13.6136L16.5261 19.6398C16.9559 20.0695 17.5192 20.2845 18.0825 20.2845C18.6459 20.2845 19.2092 20.0696 19.639 19.6398C20.4986 18.7802 20.4986 17.3864 19.639 16.5268L13.6129 10.5006Z" fill="white"/>
</svg>
