<svg width="9" height="13" viewBox="0 0 9 13" fill="none" xmlns="http://www.w3.org/2000/svg">
<path d="M4.4 5.97143C4.60636 5.97143 4.81071 5.93078 5.00136 5.85181C5.19201 5.77284 5.36525 5.65709 5.51117 5.51117C5.65709 5.36525 5.77284 5.19201 5.85181 5.00136C5.93078 4.81071 5.97143 4.60636 5.97143 4.4C5.97143 3.98323 5.80587 3.58353 5.51117 3.28883C5.21647 2.99413 4.81677 2.82857 4.4 2.82857C3.98323 2.82857 3.58353 2.99413 3.28883 3.28883C2.99413 3.58353 2.82857 3.98323 2.82857 4.4C2.82857 4.60636 2.86922 4.81071 2.94819 5.00136C3.02716 5.19201 3.14291 5.36525 3.28883 5.51117C3.58353 5.80587 3.98323 5.97143 4.4 5.97143ZM4.4 0C6.82629 0 8.8 1.96743 8.8 4.4C8.8 7.7 4.4 12.5714 4.4 12.5714C4.4 12.5714 0 7.7 0 4.4C0 3.23305 0.46357 2.11389 1.28873 1.28873C2.11389 0.46357 3.23305 0 4.4 0Z" fill="#B6E13D"/>
</svg>
